<?xml version="1.0" encoding="utf-8"?>
<!-- Generator: Adobe Illustrator 19.2.1, SVG Export Plug-In . SVG Version: 6.00 Build 0)  -->
<svg version="1.1" id="Layer_1" xmlns="http://www.w3.org/2000/svg" xmlns:xlink="http://www.w3.org/1999/xlink" x="0px" y="0px"
	 viewBox="0 0 100 100" style="enable-background:new 0 0 100 100;" xml:space="preserve">
<style type="text/css">
	.st0{fill:#F68838;stroke:#1E2023;stroke-width:6;stroke-miterlimit:10;}
	.st1{fill:#1E2023;}
</style>
<circle class="st0" cx="50.2" cy="50.3" r="45.9"/>
<g>
	
		<ellipse transform="matrix(0.9994 -3.494314e-02 3.494314e-02 0.9994 -1.4684 1.3229)" class="st1" cx="37.1" cy="42.7" rx="3.8" ry="3.8"/>
</g>
<g>
	<path class="st1" d="M45.9,40.2H25c-0.6,0-1.1-0.5-1.1-1.1S24.4,38,25,38h21c0.6,0,1.1,0.5,1.1,1.1S46.5,40.2,45.9,40.2z"/>
</g>
<g>
	
		<ellipse transform="matrix(0.9994 -3.494314e-02 3.494314e-02 0.9994 -1.4456 2.6294)" class="st1" cx="74.5" cy="42.7" rx="3.8" ry="3.8"/>
</g>
<g>
	<path class="st1" d="M83.3,40.2h-21c-0.6,0-1.1-0.5-1.1-1.1s0.5-1.1,1.1-1.1h21c0.6,0,1.1,0.5,1.1,1.1S83.9,40.2,83.3,40.2z"/>
</g>
<g>
	<path class="st1" d="M37.1,66.2c-0.4,0-0.7-0.2-1-0.6c-0.3-0.5-0.1-1.2,0.4-1.5c11.3-6.4,21.5-8.4,28.1-8.9
		c7.2-0.6,11.6,0.4,11.8,0.5c0.6,0.1,1,0.7,0.8,1.3c-0.1,0.6-0.7,1-1.3,0.8l0,0c0,0-4.4-0.9-11.3-0.4c-6.3,0.5-16.2,2.4-27.1,8.6
		C37.5,66.1,37.3,66.2,37.1,66.2z"/>
</g>
</svg>
