<?xml version="1.0" encoding="utf-8"?>
<!-- Generator: Adobe Illustrator 19.2.1, SVG Export Plug-In . SVG Version: 6.00 Build 0)  -->
<svg version="1.1" id="Layer_1" xmlns="http://www.w3.org/2000/svg" xmlns:xlink="http://www.w3.org/1999/xlink" x="0px" y="0px"
	 viewBox="0 0 100 100" style="enable-background:new 0 0 100 100;" xml:space="preserve">
<style type="text/css">
	.st0{fill:#802674;stroke:#1E2023;stroke-width:6;stroke-miterlimit:10;}
	.st1{fill:#1E2023;}
</style>
<g>
	<circle class="st0" cx="50.4" cy="50.6" r="46.6"/>
	<g>
		<ellipse transform="matrix(0.3445 -0.9388 0.9388 0.3445 -26.1557 75.3467)" class="st1" cx="40.9" cy="56.4" rx="3.9" ry="3.9"/>
	</g>
	<g>
		<path class="st1" d="M32.3,58c-0.5,0-0.9-0.3-1-0.7c-0.2-0.6,0.1-1.2,0.7-1.4c0.1,0,6.6-2.4,10.1-7.7c0.3-0.5,1-0.6,1.5-0.3
			c0.5,0.3,0.6,1,0.3,1.5c-3.9,5.9-10.9,8.4-11.2,8.5C32.6,57.9,32.5,58,32.3,58z"/>
	</g>
	<g>
		<ellipse transform="matrix(0.9388 -0.3445 0.3445 0.9388 -14.9053 28.922)" class="st1" cx="73.9" cy="56.4" rx="3.9" ry="3.9"/>
	</g>
	<g>
		<path class="st1" d="M82.5,58c-0.1,0-0.3,0-0.4-0.1c-0.3-0.1-7.2-2.7-11.2-8.5c-0.3-0.5-0.2-1.2,0.3-1.5c0.5-0.3,1.2-0.2,1.5,0.3
			c3.5,5.3,10,7.7,10.1,7.7c0.6,0.2,0.9,0.8,0.7,1.4C83.3,57.7,82.9,58,82.5,58z"/>
	</g>
	<g>
		<path class="st1" d="M73.9,82.8c-0.6,0-1.1-0.5-1.1-1.1c0-8-6.9-14.5-15.4-14.5c-8.5,0-15.4,6.5-15.4,14.5c0,0.6-0.5,1.1-1.1,1.1
			c-0.6,0-1.1-0.5-1.1-1.1c0-9.2,7.9-16.7,17.6-16.7S75,72.4,75,81.6C75,82.3,74.5,82.8,73.9,82.8z"/>
	</g>
</g>
</svg>
